<mxfile host="app.diagrams.net" modified="2022-06-14T09:05:39.628Z" agent="5.0 (Macintosh; Intel Mac OS X 10_15_7) AppleWebKit/537.36 (KHTML, like Gecko) Chrome/102.0.5005.61 Safari/537.36" etag="WkHlC23gSdlPkQa_idQN" version="19.0.3" type="github">
  <diagram id="j7PzHSOK4SGS7GpZXWp-" name="Page-1">
    <mxGraphModel dx="1426" dy="794" grid="1" gridSize="10" guides="1" tooltips="1" connect="1" arrows="1" fold="1" page="1" pageScale="1" pageWidth="850" pageHeight="1100" math="0" shadow="0">
      <root>
        <mxCell id="0" />
        <mxCell id="1" parent="0" />
        <mxCell id="3Xd9eUzj0_9hOQsiWZMp-1" value="" style="shape=image;verticalLabelPosition=bottom;labelBackgroundColor=default;verticalAlign=top;aspect=fixed;imageAspect=0;image=https://img-blog.csdnimg.cn/1500192a88244f2cbca6457b59679c23.png;strokeWidth=1;" parent="1" vertex="1">
          <mxGeometry x="279" y="120" width="292" height="515" as="geometry" />
        </mxCell>
        <mxCell id="VF_hRrad0KgvzgWlQuDx-3" value="" style="ellipse;whiteSpace=wrap;html=1;strokeColor=#FF6666;strokeWidth=2;fillColor=none;" vertex="1" parent="1">
          <mxGeometry x="305" y="200" width="135" height="120" as="geometry" />
        </mxCell>
        <mxCell id="VF_hRrad0KgvzgWlQuDx-4" value="" style="ellipse;whiteSpace=wrap;html=1;aspect=fixed;fillColor=none;strokeColor=#FF6666;strokeWidth=2;" vertex="1" parent="1">
          <mxGeometry x="440" y="290" width="120" height="120" as="geometry" />
        </mxCell>
        <mxCell id="VF_hRrad0KgvzgWlQuDx-5" value="" style="ellipse;whiteSpace=wrap;html=1;aspect=fixed;fillColor=none;strokeColor=#FF6666;strokeWidth=2;" vertex="1" parent="1">
          <mxGeometry x="312.5" y="380" width="120" height="120" as="geometry" />
        </mxCell>
        <mxCell id="VF_hRrad0KgvzgWlQuDx-6" value="" style="ellipse;whiteSpace=wrap;html=1;aspect=fixed;fillColor=none;strokeColor=#FF6666;strokeWidth=2;" vertex="1" parent="1">
          <mxGeometry x="410" y="470" width="110" height="110" as="geometry" />
        </mxCell>
      </root>
    </mxGraphModel>
  </diagram>
</mxfile>
